# Blender v2.69 (sub 0) OBJ File: 'Cube.blend'
# www.blender.org
mtllib Cube.mtl
o Cube
v 1.000000 -1.000000 -1.000000
v 1.000000 -1.000000 1.000000
v -1.000000 -1.000000 1.000000
v -1.000000 -1.000000 -1.000000
v 1.000000 1.000000 -0.999999
v 0.999999 1.000000 1.000001
v -1.000000 1.000000 1.000000
v -1.000000 1.000000 -1.000000
vt 0.000000 0.000000
vt 0.000000 1.000000
vt 1.000000 0.000000
vt 1.000000 1.000000
vn 0.000000 -1.000000 0.000000
vn 0.000000 1.000000 0.000000
vn 1.000000 -0.000000 0.000000
vn 0.000000 -0.000000 1.000000
vn -1.000000 -0.000000 -0.000000
vn 0.000000 0.000000 -1.000000
vn 1.000000 0.000000 0.000001
usemtl Material
s off
f 1/1/1 2/1/1 4/1/1
f 5/2/2 8/2/2 6/1/2
f 1/1/3 5/2/3 2/1/3
f 2/1/4 6/2/4 3/1/4
f 3/1/5 7/2/5 4/3/5
f 5/1/6 1/1/6 8/1/6
f 2/1/1 3/1/1 4/1/1
f 8/2/2 7/1/2 6/1/2
f 5/2/7 6/2/7 2/1/7
f 6/2/4 7/2/4 3/1/4
f 7/2/5 8/4/5 4/3/5
f 1/1/6 4/1/6 8/1/6
