# Blender v2.76 (sub 0) OBJ File: 'iceRink.blend'
# www.blender.org
mtllib iceRink.mtl
o Cube
v 9.530886 -1.000000 -5.274563
v 9.530888 -1.000000 -2.026877
v 8.956280 -1.000000 -2.026877
v 8.956280 -1.000000 1.714600
v 9.530889 -1.000000 1.714600
v 9.530890 -1.000000 5.274563
v -9.530885 -1.000000 5.274563
v -9.530886 -1.000000 1.714599
v -8.939170 -1.000000 1.714599
v -8.939170 -1.000000 -2.026879
v -9.530886 -1.000000 -2.026879
v -9.530887 -1.000000 -5.274565
v -9.530892 1.000000 -5.274561
v 9.530882 1.000000 -5.274565
v 9.530887 1.000000 5.274564
v 9.530887 0.236488 1.714600
v 9.530885 0.236488 -2.026877
v -9.530883 1.000000 5.274565
v -9.530888 0.236488 -2.026879
v -9.530886 0.236488 1.714599
v -8.956324 0.236488 1.714599
v -8.956324 0.000000 1.714599
v -8.956323 -0.939716 1.714599
v -8.939170 -0.939716 1.714599
v -8.939170 -0.939716 -0.000000
v -8.939170 -0.939716 -2.026879
v -8.956324 -0.939716 -2.026879
v -8.956326 0.000000 -2.026879
v -8.956326 0.236488 -2.026879
v 9.530882 1.000000 -5.274565
v 9.530887 1.000000 5.274564
v -9.530883 1.000000 5.274565
v -8.956325 0.236488 0.000001
v -9.530892 1.000000 -5.274561
v -8.956325 0.939716 0.000002
v -8.956321 0.939716 4.956593
v -8.956322 0.000000 4.956592
v -8.956322 0.000000 3.717444
v -8.956323 0.000000 2.478296
v -8.956322 -0.469858 4.956592
v -8.956322 -0.939716 4.956591
v -8.956323 -0.939716 2.478295
v 0.000001 -0.939716 0.000000
v 0.000002 -0.939716 4.956590
v -0.000000 -0.939716 -4.956590
v -8.956325 -0.939716 -4.956591
v -8.956324 -0.939716 -2.478295
v -8.956326 -0.469858 -4.956590
v -8.956326 0.000000 -4.956589
v -8.956326 0.000000 -3.717442
v -8.956326 0.000000 -2.478294
v -8.956328 0.939716 -4.956588
v 0.000001 0.939716 4.956591
v 0.000001 0.000000 4.956591
v -2.239079 0.000000 4.956591
v -4.478160 0.000000 4.956591
v -6.717241 0.000000 4.956592
v 8.956280 -0.939716 0.000000
v 8.956326 -0.939716 4.956589
v 8.956326 -0.939716 2.478295
v 8.956326 -0.939716 1.714600
v 8.956280 -0.939716 1.714600
v 8.956323 -0.939716 -4.956590
v 8.956280 -0.939716 -2.026877
v 8.956325 -0.939716 -2.026877
v 8.956325 -0.939716 -2.478295
v -0.000002 0.000000 -4.956590
v -2.239083 0.000000 -4.956590
v -4.478164 0.000000 -4.956590
v -6.717245 0.000000 -4.956590
v -0.000005 0.939716 -4.956590
v 8.956319 0.939716 -4.956593
v 8.956321 0.939716 -0.000001
v 8.956323 0.939716 4.956591
v 8.956325 0.000000 4.956590
v 4.478163 0.000000 4.956591
v 2.239082 0.000000 4.956590
v 8.956326 -0.469858 4.956589
v 8.956325 -0.469858 2.478295
v 8.956325 -0.469858 1.714600
v 8.956322 -0.469858 -4.956591
v 8.956323 -0.469858 -2.478295
v 4.478159 0.000000 -4.956591
v 2.239079 0.000000 -4.956590
v 8.956323 -0.469858 -2.026877
v 8.956321 0.000000 -4.956591
v 8.956322 0.000000 -2.478295
v 8.956322 0.000000 -2.026877
v 8.956322 0.236488 -2.026877
v 8.956322 0.236488 -0.000000
v 8.956323 0.236488 1.714600
v 8.956324 0.000000 1.714600
v 8.956325 0.000000 2.478295
vt -0.662535 -0.030144
vt -0.662535 -0.968958
vt -0.307863 -0.968958
vt -1.000000 0.000000
vt -1.000000 1.000000
vt -0.000000 1.000000
vt 0.000000 0.000000
vt -0.662535 -0.381756
vt -0.307863 -0.381756
vt 1.000000 0.000000
vt 1.000000 1.000000
vt -0.662535 0.618244
vt 0.147606 0.500000
vt 0.265071 0.500000
vt 0.030142 0.969858
vt 0.030142 0.265071
vt 0.030142 0.030142
vt 0.337465 0.031042
vt 0.265071 0.030142
vt 0.500000 0.500000
vt 0.734929 0.030142
vt 0.692137 0.031042
vt 0.969858 0.265071
vt 0.852393 0.500000
vt 0.969858 0.030142
vt 0.969858 0.969858
vt 0.692137 0.618244
vt -0.000000 -1.000000
vt 2.000000 -0.000000
vt 0.500000 -0.030142
vt 0.500000 0.969858
vt 0.382536 0.500000
vt 0.500000 0.030142
vt 0.265071 0.969858
vt 0.337465 0.969856
vt 0.692137 0.969856
vt 0.734929 0.969858
vt -0.030142 0.500000
vt 1.030142 0.500000
vt 0.734929 0.500000
vt 0.617465 0.500000
vt 0.265071 0.265071
vt 0.337465 0.265071
vt 0.734929 0.265071
vt 0.692137 0.030142
vt 0.337465 0.618244
vt 0.969858 0.500000
vt 0.337465 0.500000
vt 0.692137 0.500000
vt -0.662535 0.000000
vt -0.307863 0.000000
vt -0.307863 -0.030144
vt -0.307863 -1.000000
vt -1.000000 -1.000000
vt -0.662535 -1.000000
vt -0.307863 0.618244
vt 0.500000 0.618244
vt 0.030142 0.500000
vt 0.337465 0.030142
vt 0.500000 0.031042
vt 0.969858 -0.030142
vt 0.030142 -0.030142
vt -0.030142 0.969858
vt -0.030142 0.030142
vt 1.030142 0.030142
vt 1.030142 0.969858
vt 0.692137 0.265071
vt 0.692137 0.000000
vt 0.337465 0.000000
vt -0.030142 0.265071
vt 0.000000 0.618244
vt 0.337465 1.000000
vt 0.692137 1.000000
vt 0.030142 0.618244
vt 0.031042 0.030142
vt 0.031042 0.000000
vt 1.030142 0.618244
vt 1.000000 0.618244
vt 1.031042 0.000000
vt 1.031042 0.030142
vt -0.030142 0.618244
vt -0.030144 0.000000
vt 0.969858 0.618244
vt 0.969856 0.000000
vn 0.000000 -1.000000 0.000000
vn -0.000000 0.000000 -1.000000
vn 1.000000 0.000000 -0.000000
vn 0.000000 -0.000000 1.000000
vn -1.000000 0.000000 0.000000
vn 0.000000 1.000000 0.000000
vn 0.104300 0.994500 -0.000000
vn 0.000000 0.982500 0.186300
vn -0.104300 0.994500 0.000000
vn 0.000000 0.982500 -0.186300
vn 0.301500 0.301500 -0.904500
vn -0.577300 -0.577300 -0.577300
vn 0.707100 0.000000 -0.707100
vn -0.707100 0.707100 0.000000
vn -0.301500 -0.904500 0.301500
vn -0.301500 -0.904500 -0.301500
vn -0.577300 -0.577300 0.577300
vn 0.301500 0.301500 0.904500
vn 0.707100 0.000000 0.707100
vn 0.707100 -0.707100 0.000000
vn -0.904500 -0.301500 -0.301500
vn -0.904500 -0.301500 0.301500
vn 0.577300 -0.577300 -0.577300
vn -0.707100 0.000000 -0.707100
vn 0.904500 -0.301500 -0.301500
vn -0.707100 -0.707100 0.000000
vn 0.904500 -0.301500 0.301500
vn 0.707100 0.707100 0.000000
vn 0.301500 -0.904500 -0.301500
vn 0.301500 -0.904500 0.301500
vn -0.301500 0.301500 0.904500
vn 0.577300 -0.577300 0.577300
vn -0.707100 0.000000 0.707100
vn -0.301500 0.904500 -0.301500
vn -0.301500 0.904500 0.301500
vn -0.301500 0.301500 -0.904500
vn 0.301500 0.904500 -0.301500
vn 0.301500 0.904500 0.301500
usemtl Material
s off
f 4/1/1 9/2/1 10/3/1
f 12/4/2 13/5/2 14/6/2
f 14/7/3 16/8/3 17/9/3
f 7/7/4 6/10/4 15/11/4
f 20/12/5 18/5/5 13/6/5
f 14/6/4 13/7/4 34/7/4
f 15/7/4 14/10/4 30/10/4
f 38/13/3 39/14/3 36/15/3
f 40/16/3 41/17/3 38/13/3
f 24/18/6 42/19/6 43/20/6
f 47/21/6 26/22/6 43/20/6
f 48/23/3 50/24/3 46/25/3
f 52/26/3 29/27/3 50/24/3
f 31/7/4 32/28/4 18/28/4
f 32/10/4 34/29/4 13/29/4
f 32/7/7 35/30/7 34/10/7
f 53/31/2 55/32/2 56/14/2
f 56/14/2 55/32/2 44/33/2
f 43/20/6 60/34/6 62/35/6
f 43/20/6 64/36/6 66/37/6
f 70/13/4 48/16/4 46/17/4
f 52/15/4 70/13/4 69/14/4
f 34/7/8 71/38/8 30/6/8
f 30/10/9 73/30/9 31/7/9
f 31/11/10 53/39/10 32/10/10
f 53/31/2 76/40/2 77/41/2
f 77/41/2 76/40/2 44/33/2
f 79/42/5 60/19/5 59/17/5
f 60/19/5 79/42/5 80/43/5
f 63/25/5 66/21/5 82/44/5
f 83/40/4 84/41/4 45/33/4
f 82/44/5 66/21/5 65/45/5
f 71/31/4 84/41/4 83/40/4
f 87/40/5 89/27/5 72/26/5
f 91/46/5 93/14/5 74/15/5
f 78/23/2 76/40/2 75/47/2
f 93/14/5 79/42/5 78/16/5
f 79/42/5 93/14/5 92/48/5
f 81/23/5 82/44/5 87/40/5
f 81/23/4 86/47/4 83/40/4
f 88/49/5 87/40/5 82/44/5
f 12/28/1 1/7/1 10/3/1
f 4/1/1 5/50/1 6/4/1
f 1/7/1 2/51/1 3/52/1
f 4/1/1 6/4/1 9/2/1
f 1/7/1 3/52/1 10/3/1
f 10/3/1 11/53/1 12/28/1
f 7/54/1 8/55/1 9/2/1
f 10/3/1 3/52/1 4/1/1
f 6/4/1 7/54/1 9/2/1
f 1/7/2 12/4/2 14/6/2
f 15/4/3 6/54/3 16/8/3
f 2/53/3 1/28/3 17/9/3
f 6/54/3 5/55/3 16/8/3
f 17/9/3 1/28/3 14/7/3
f 14/7/3 15/4/3 16/8/3
f 18/6/4 7/7/4 15/11/4
f 13/6/5 12/7/5 19/56/5
f 20/12/5 8/50/5 7/4/5
f 12/7/5 11/51/5 19/56/5
f 20/12/5 7/4/5 18/5/5
f 13/6/5 19/56/5 20/12/5
f 30/6/4 14/6/4 34/7/4
f 31/7/4 15/7/4 30/10/4
f 21/46/3 33/57/3 35/31/3
f 35/31/3 36/15/3 21/46/3
f 37/58/3 38/13/3 36/15/3
f 39/14/3 22/48/3 21/46/3
f 21/46/3 36/15/3 39/14/3
f 23/59/3 22/48/3 39/14/3
f 39/14/3 42/19/3 23/59/3
f 37/58/3 40/16/3 38/13/3
f 41/17/3 42/19/3 38/13/3
f 39/14/3 38/13/3 42/19/3
f 44/58/6 43/20/6 42/19/6
f 24/18/6 23/59/6 42/19/6
f 43/20/6 25/60/6 24/18/6
f 42/19/6 41/17/6 44/58/6
f 43/20/6 45/47/6 47/21/6
f 47/21/6 27/45/6 26/22/6
f 45/47/6 46/25/6 47/21/6
f 26/22/6 25/60/6 43/20/6
f 28/49/3 27/45/3 47/21/3
f 47/21/3 46/25/3 50/24/3
f 48/23/3 49/47/3 50/24/3
f 50/24/3 51/40/3 47/21/3
f 28/49/3 47/21/3 51/40/3
f 50/24/3 49/47/3 52/26/3
f 52/26/3 35/31/3 29/27/3
f 29/27/3 28/49/3 51/40/3
f 35/31/3 33/57/3 29/27/3
f 51/40/3 50/24/3 29/27/3
f 15/7/4 31/7/4 18/28/4
f 18/10/4 32/10/4 13/29/4
f 52/61/7 34/10/7 35/30/7
f 32/7/7 36/62/7 35/30/7
f 57/13/2 37/58/2 36/15/2
f 36/15/2 53/31/2 56/14/2
f 54/20/2 55/32/2 53/31/2
f 56/14/2 57/13/2 36/15/2
f 44/33/2 41/17/2 56/14/2
f 40/16/2 37/58/2 57/13/2
f 57/13/2 56/14/2 41/17/2
f 55/32/2 54/20/2 44/33/2
f 41/17/2 40/16/2 57/13/2
f 62/35/6 58/31/6 43/20/6
f 43/20/6 44/58/6 60/34/6
f 60/34/6 61/35/6 62/35/6
f 44/58/6 59/15/6 60/34/6
f 66/37/6 63/26/6 45/47/6
f 45/47/6 43/20/6 66/37/6
f 64/36/6 65/36/6 66/37/6
f 43/20/6 58/31/6 64/36/6
f 46/17/4 45/33/4 69/14/4
f 67/20/4 68/32/4 45/33/4
f 69/14/4 70/13/4 46/17/4
f 49/58/4 48/16/4 70/13/4
f 45/33/4 68/32/4 69/14/4
f 68/32/4 67/20/4 71/31/4
f 71/31/4 52/15/4 69/14/4
f 49/58/4 70/13/4 52/15/4
f 69/14/4 68/32/4 71/31/4
f 72/63/8 30/6/8 71/38/8
f 34/7/8 52/64/8 71/38/8
f 74/62/9 31/7/9 73/30/9
f 30/10/9 72/61/9 73/30/9
f 36/65/10 32/10/10 53/39/10
f 31/11/10 74/66/10 53/39/10
f 77/41/2 54/20/2 53/31/2
f 53/31/2 74/26/2 76/40/2
f 75/47/2 76/40/2 74/26/2
f 59/25/2 44/33/2 76/40/2
f 54/20/2 77/41/2 44/33/2
f 76/40/2 78/23/2 59/25/2
f 78/16/5 79/42/5 59/17/5
f 61/59/5 60/19/5 80/43/5
f 81/23/5 63/25/5 82/44/5
f 45/33/4 63/25/4 83/40/4
f 81/23/4 83/40/4 63/25/4
f 84/41/4 67/20/4 45/33/4
f 85/67/5 82/44/5 65/45/5
f 83/40/4 86/47/4 72/26/4
f 72/26/4 71/31/4 83/40/4
f 67/20/4 84/41/4 71/31/4
f 73/31/5 72/26/5 89/27/5
f 86/47/5 87/40/5 72/26/5
f 89/27/5 90/57/5 73/31/5
f 87/40/5 88/49/5 89/27/5
f 74/15/5 73/31/5 91/46/5
f 91/46/5 92/48/5 93/14/5
f 73/31/5 90/57/5 91/46/5
f 93/14/5 75/58/5 74/15/5
f 75/58/5 93/14/5 78/16/5
f 80/43/5 79/42/5 92/48/5
f 86/47/5 81/23/5 87/40/5
f 85/67/5 88/49/5 82/44/5
s 1
f 23/17/11 8/7/12 22/58/13
f 25/33/14 10/68/15 9/69/16
f 11/10/17 27/65/18 28/39/19
f 33/33/20 20/69/21 19/68/22
f 5/7/23 80/70/24 16/71/25
f 16/72/25 90/31/26 17/73/27
f 58/33/28 4/69/29 3/68/30
f 65/25/31 2/10/32 85/23/33
f 20/71/21 21/74/25 22/58/13
f 23/17/11 24/75/34 9/76/16
f 20/71/21 22/58/13 8/7/12
f 9/76/16 8/7/12 23/17/11
f 9/69/16 24/59/34 25/33/14
f 25/33/14 26/45/35 10/68/15
f 29/77/27 19/78/22 28/39/19
f 11/10/17 10/79/15 27/65/18
f 28/39/19 19/78/22 11/10/17
f 10/79/15 26/80/35 27/65/18
f 19/68/22 29/45/27 33/33/20
f 33/33/20 21/59/25 20/69/21
f 91/81/21 16/71/25 92/38/24
f 5/7/23 4/82/29 61/64/36
f 61/64/36 80/70/24 5/7/23
f 4/82/29 62/64/37 61/64/36
f 92/38/24 16/71/25 80/70/24
f 89/36/22 17/73/27 90/31/26
f 16/72/25 91/35/21 90/31/26
f 3/68/30 64/45/38 58/33/28
f 58/33/28 62/59/37 4/69/29
f 17/78/27 89/83/22 88/47/33
f 88/47/33 85/23/33 17/78/27
f 65/25/31 64/25/38 3/84/30
f 3/84/30 2/10/32 65/25/31
f 17/78/27 85/23/33 2/10/32
