# Blender v2.70 (sub 0) OBJ File: ''
# www.blender.org
mtllib objectTwo.mtl
o Cube
v 2.312204 -0.128803 -1.000000
v 2.312204 -0.128803 1.000000
v -1.000000 -0.128803 1.000000
v -1.000000 -0.128803 -1.000000
v 2.312204 0.183454 -0.999999
v 2.312203 0.183454 1.000001
v -1.000000 0.183454 1.000000
v -1.000000 0.183454 -1.000000
v 2.464972 -0.128803 -1.000000
v 2.464972 -0.128803 1.000000
v 2.464973 0.183454 -0.999999
v 2.464972 0.183454 1.000001
v -1.141876 -0.128803 1.000000
v -1.141875 -0.128803 -1.000000
v -1.141876 0.183454 1.000000
v -1.141876 0.183454 -1.000000
v 2.464972 -0.128803 1.000000
v 2.464972 0.183454 1.000001
v -1.141876 -0.128803 1.000000
v -1.141876 0.183454 1.000000
v 2.312204 -0.128803 1.134293
v -1.141896 0.183454 1.134292
v 2.312203 0.183454 1.134293
v -1.141896 -0.128804 1.134293
v 2.312204 -0.128803 -1.118784
v -1.000000 -0.128803 -1.118784
v 2.312204 0.183454 -1.118783
v -1.000000 0.183454 -1.118784
v 2.312204 -0.128803 -1.118940
v 2.312204 0.183454 -1.118939
v 2.464972 -0.128803 -1.118940
v 2.464973 0.183455 -1.118939
v 2.312204 -0.128803 1.000000
v 2.312203 0.183454 1.000001
v 2.464972 -0.128803 1.000000
v 2.464972 0.183454 1.000001
v 2.312204 -0.128803 1.000000
v 2.312203 0.183454 1.000001
v 2.464972 -0.128803 1.000000
v 2.464972 0.183454 1.000001
v 2.312204 -0.128803 1.000000
v 2.312203 0.183454 1.000001
v 2.464972 -0.128803 1.000000
v 2.464972 0.183454 1.000001
v 2.312204 -0.128803 1.134293
v 2.312203 0.183454 1.134293
v 2.312204 -0.128803 1.000000
v 2.312203 0.183454 1.000001
v -1.141896 0.183454 1.000000
v -1.141896 -0.128803 1.000000
v 2.464743 -0.128803 1.134293
v 2.464742 0.183455 1.134293
v 2.464743 -0.128803 1.134293
v 2.464742 0.183455 1.134293
v 2.464743 -0.128803 1.000000
v 2.464742 0.183455 1.000001
v -1.000000 -0.128803 1.000000
v -1.000000 0.183454 1.000000
v -1.141876 -0.128803 1.000000
v -1.141876 0.183454 1.000000
v -1.000000 -0.128803 1.000000
v -1.000000 0.183454 1.000000
v -1.141876 -0.128803 1.000000
v -1.141876 0.183454 1.000000
v -1.000000 -0.128803 1.000000
v -1.000000 0.183454 1.000000
v -1.141876 -0.128803 1.000000
v -1.141876 0.183454 1.000000
v 2.312204 -0.128803 1.000000
v -1.000000 -0.128803 1.000000
v 2.312203 0.183454 1.000001
v -1.000000 0.183454 1.000000
v 2.312204 -0.128803 1.134293
v -1.000000 -0.128803 1.134293
v 2.312203 0.183454 1.134293
v -1.000000 0.183454 1.134292
v 2.464743 -0.128803 1.000000
v 2.464742 0.183455 1.000001
v 2.464743 -0.128803 1.134293
v 2.464742 0.183455 1.134293
v -1.000000 -0.128803 -1.118609
v -1.000000 0.183454 -1.118609
v -1.141875 -0.128803 -1.118609
v -1.141876 0.183454 -1.118609
vn 0.000000 -1.000000 0.000000
vn -0.000000 1.000000 -0.000000
vn 0.000001 0.000001 -1.000000
vn -0.000001 1.000000 0.000000
vn -0.000000 1.000000 0.000001
vn 1.000000 0.000000 0.000001
vn 0.000000 -0.000002 1.000000
vn 0.000000 -1.000000 -0.000001
vn -1.000000 -0.000001 -0.000000
vn 0.000001 -1.000000 -0.000001
vn 0.000000 0.000000 1.000000
vn 0.000001 -1.000000 -0.000000
vn 1.000000 0.000000 0.000000
vn -1.000000 -0.000004 0.000000
vn 0.000000 -0.000001 -1.000000
vn 0.000000 0.000001 1.000000
vn -0.000001 1.000000 0.000001
vn 0.000000 0.000002 -1.000000
vn 1.000000 -0.000002 -0.000000
vn -0.000000 -0.000001 1.000000
vn -1.000000 0.000000 -0.000001
vn -0.000001 0.000002 -1.000000
vn 1.000000 -0.000001 -0.000000
vn -1.000000 0.000002 0.000000
vn -0.000001 0.000001 1.000000
vn 1.000000 0.000003 0.000000
vn 0.000002 -1.000000 -0.000001
vn -0.000002 1.000000 0.000001
vn -1.000000 -0.000002 -0.000000
vn 1.000000 0.000001 0.000000
vn -0.000001 0.000001 -1.000000
vn 1.000000 0.000002 0.000000
vn -1.000000 0.000003 -0.000001
vn 0.000003 -0.000001 -1.000000
vn -1.000000 -0.000001 -0.000001
vn 0.000001 0.000002 -1.000000
usemtl Material
s off
f 2//1 3//1 4//1
f 6//2 12//2 11//2
f 81//3 83//3 84//3
f 8//4 16//4 15//4
f 8//5 5//5 27//5
f 9//6 11//6 12//6
f 6//7 2//7 10//7
f 9//8 1//8 29//8
f 1//1 9//1 10//1
f 15//9 16//9 14//9
f 14//10 83//10 81//10
f 7//11 62//11 66//11
f 3//12 13//12 14//12
f 3//13 4//13 8//13
f 1//14 2//14 6//14
f 15//11 20//11 19//11
f 10//11 17//11 18//11
f 70//15 50//15 49//15
f 76//16 22//16 24//16
f 21//11 51//11 53//11
f 72//17 49//17 22//17
f 25//18 26//18 28//18
f 8//9 28//9 26//9
f 5//19 1//19 25//19
f 4//8 26//8 25//8
f 5//20 8//20 4//20
f 49//21 50//21 24//21
f 29//22 30//22 32//22
f 11//5 32//5 30//5
f 9//23 31//23 32//23
f 5//24 30//24 29//24
f 17//11 35//11 36//11
f 6//11 34//11 33//11
f 35//11 39//11 40//11
f 34//11 38//11 37//11
f 39//11 43//11 44//11
f 38//11 42//11 41//11
f 42//11 48//11 47//11
f 46//11 54//11 52//11
f 23//11 75//11 73//11
f 52//11 54//11 53//11
f 47//18 48//18 56//18
f 45//7 53//7 54//7
f 51//11 79//11 80//11
f 52//11 80//11 75//11
f 21//11 73//11 79//11
f 20//11 60//11 59//11
f 57//11 65//11 61//11
f 62//25 64//25 63//25
f 61//11 65//11 66//11
f 60//11 68//11 67//11
f 58//11 66//11 65//11
f 3//11 61//11 63//11
f 15//11 64//11 62//11
f 13//11 63//11 64//11
f 72//5 76//5 75//5
f 75//16 76//16 74//16
f 74//10 24//10 50//10
f 69//8 73//8 74//8
f 69//15 70//15 72//15
f 77//26 78//26 80//26
f 69//27 77//27 79//27
f 75//28 80//28 78//28
f 69//18 71//18 78//18
f 8//17 82//17 84//17
f 14//29 16//29 84//29
f 4//30 81//30 82//30
f 1//1 2//1 4//1
f 5//2 6//2 11//2
f 82//31 81//31 84//31
f 7//4 8//4 15//4
f 28//5 8//5 27//5
f 10//32 9//32 12//32
f 12//7 6//7 10//7
f 31//8 9//8 29//8
f 2//1 1//1 10//1
f 13//29 15//29 14//29
f 4//10 14//10 81//10
f 58//11 7//11 66//11
f 4//12 3//12 14//12
f 7//30 3//30 8//30
f 5//33 1//33 6//33
f 13//11 15//11 19//11
f 12//11 10//11 18//11
f 72//34 70//34 49//34
f 74//25 76//25 24//25
f 45//11 21//11 53//11
f 76//17 72//17 22//17
f 27//18 25//18 28//18
f 4//9 8//9 26//9
f 27//19 5//19 25//19
f 1//8 4//8 25//8
f 1//7 5//7 4//7
f 22//35 49//35 24//35
f 31//36 29//36 32//36
f 5//5 11//5 30//5
f 11//19 9//19 32//19
f 1//24 5//24 29//24
f 18//11 17//11 36//11
f 2//11 6//11 33//11
f 36//11 35//11 40//11
f 33//11 34//11 37//11
f 40//11 39//11 44//11
f 37//11 38//11 41//11
f 41//11 42//11 47//11
f 23//11 46//11 52//11
f 21//11 23//11 73//11
f 51//11 52//11 53//11
f 55//18 47//18 56//18
f 46//7 45//7 54//7
f 52//11 51//11 80//11
f 23//11 52//11 75//11
f 51//11 21//11 79//11
f 19//11 20//11 59//11
f 3//11 57//11 61//11
f 61//25 62//25 63//25
f 62//11 61//11 66//11
f 59//11 60//11 67//11
f 57//11 58//11 65//11
f 13//11 3//11 63//11
f 7//11 15//11 62//11
f 15//11 13//11 64//11
f 71//5 72//5 75//5
f 73//7 75//7 74//7
f 70//10 74//10 50//10
f 70//8 69//8 74//8
f 71//18 69//18 72//18
f 79//30 77//30 80//30
f 73//27 69//27 79//27
f 71//28 75//28 78//28
f 77//18 69//18 78//18
f 16//17 8//17 84//17
f 83//9 14//9 84//9
f 8//30 4//30 82//30
