# Blender v2.69 (sub 0) OBJ File: 'Cylinder.blend'
# www.blender.org
mtllib Cylinder.mtl
o Cylinder
v 0.000000 -1.000000 -1.000000
v 0.000000 1.000000 -1.000000
v 0.195090 -1.000000 -0.980785
v 0.195090 1.000000 -0.980785
v 0.382683 -1.000000 -0.923880
v 0.382683 1.000000 -0.923880
v 0.555570 -1.000000 -0.831470
v 0.555570 1.000000 -0.831470
v 0.707107 -1.000000 -0.707107
v 0.707107 1.000000 -0.707107
v 0.831470 -1.000000 -0.555570
v 0.831470 1.000000 -0.555570
v 0.923880 -1.000000 -0.382683
v 0.923880 1.000000 -0.382683
v 0.980785 -1.000000 -0.195090
v 0.980785 1.000000 -0.195090
v 1.000000 -1.000000 -0.000000
v 1.000000 1.000000 -0.000000
v 0.980785 -1.000000 0.195090
v 0.980785 1.000000 0.195090
v 0.923880 -1.000000 0.382683
v 0.923880 1.000000 0.382683
v 0.831470 -1.000000 0.555570
v 0.831470 1.000000 0.555570
v 0.707107 -1.000000 0.707107
v 0.707107 1.000000 0.707107
v 0.555570 -1.000000 0.831470
v 0.555570 1.000000 0.831470
v 0.382683 -1.000000 0.923880
v 0.382683 1.000000 0.923880
v 0.195090 -1.000000 0.980785
v 0.195090 1.000000 0.980785
v -0.000000 -1.000000 1.000000
v -0.000000 1.000000 1.000000
v -0.195091 -1.000000 0.980785
v -0.195091 1.000000 0.980785
v -0.382684 -1.000000 0.923879
v -0.382684 1.000000 0.923879
v -0.555571 -1.000000 0.831469
v -0.555571 1.000000 0.831469
v -0.707107 -1.000000 0.707106
v -0.707107 1.000000 0.707106
v -0.831470 -1.000000 0.555570
v -0.831470 1.000000 0.555570
v -0.923880 -1.000000 0.382683
v -0.923880 1.000000 0.382683
v -0.980785 -1.000000 0.195089
v -0.980785 1.000000 0.195089
v -1.000000 -1.000000 -0.000001
v -1.000000 1.000000 -0.000001
v -0.980785 -1.000000 -0.195091
v -0.980785 1.000000 -0.195091
v -0.923879 -1.000000 -0.382684
v -0.923879 1.000000 -0.382684
v -0.831469 -1.000000 -0.555571
v -0.831469 1.000000 -0.555571
v -0.707106 -1.000000 -0.707108
v -0.707106 1.000000 -0.707108
v -0.555569 -1.000000 -0.831470
v -0.555569 1.000000 -0.831470
v -0.382682 -1.000000 -0.923880
v -0.382682 1.000000 -0.923880
v -0.195089 -1.000000 -0.980786
v -0.195089 1.000000 -0.980786
vt 0.500000 0.000000
vt 0.500000 1.000000
vt 0.468750 0.000000
vt 0.468750 1.000000
vt 0.437500 0.000000
vt 0.437500 1.000000
vt 0.406250 0.000000
vt 0.406250 1.000000
vt 0.375000 0.000000
vt 0.375000 1.000000
vt 0.343750 0.000000
vt 0.343750 1.000000
vt 0.312500 0.000000
vt 0.312500 1.000000
vt 0.281250 0.000000
vt 0.281250 1.000000
vt 0.250000 0.000000
vt 0.250000 1.000000
vt 0.218750 0.000000
vt 0.218750 1.000000
vt 0.187500 0.000000
vt 0.187500 1.000000
vt 0.156250 0.000000
vt 0.156250 1.000000
vt 0.125000 0.000000
vt 0.125000 1.000000
vt 0.093750 0.000000
vt 0.093750 1.000000
vt 0.062500 0.000000
vt 0.062500 1.000000
vt 0.031250 0.000000
vt 1.000000 0.000000
vt 1.000000 1.000000
vt 0.968750 0.000000
vt 0.968750 1.000000
vt 0.937500 0.000000
vt 0.937500 1.000000
vt 0.906250 0.000000
vt 0.906250 1.000000
vt 0.875000 0.000000
vt 0.875000 1.000000
vt 0.843750 0.000000
vt 0.843750 1.000000
vt 0.812500 0.000000
vt 0.812500 1.000000
vt 0.781250 0.000000
vt 0.781250 1.000000
vt 0.750000 0.000000
vt 0.750000 1.000000
vt 0.718750 0.000000
vt 0.718750 1.000000
vt 0.687500 0.000000
vt 0.687500 1.000000
vt 0.656250 0.000000
vt 0.656250 1.000000
vt 0.625000 0.000000
vt 0.625000 1.000000
vt 0.593750 0.000000
vt 0.593750 1.000000
vt 0.562500 0.000000
vt 0.531250 0.000000
vt 0.531250 1.000000
vt 0.562500 1.000000
vt 0.031250 1.000000
vn 0.098017 0.000000 -0.995185
vn 0.290285 0.000000 -0.956940
vn 0.471396 0.000000 -0.881921
vn 0.634393 0.000000 -0.773010
vn 0.773010 0.000000 -0.634393
vn 0.881921 0.000000 -0.471397
vn 0.956940 0.000000 -0.290285
vn 0.995185 0.000000 -0.098017
vn 0.995185 0.000000 0.098017
vn 0.956940 0.000000 0.290285
vn 0.881921 0.000000 0.471396
vn 0.773010 0.000000 0.634393
vn 0.634393 0.000000 0.773011
vn 0.471397 0.000000 0.881921
vn 0.290285 0.000000 0.956940
vn 0.098017 0.000000 0.995185
vn -0.098018 0.000000 0.995185
vn -0.290285 0.000000 0.956940
vn -0.471397 0.000000 0.881921
vn -0.634394 0.000000 0.773010
vn -0.773011 0.000000 0.634393
vn -0.881922 0.000000 0.471396
vn -0.956941 0.000000 0.290284
vn -0.995185 0.000000 0.098016
vn -0.995185 0.000000 -0.098018
vn -0.956940 0.000000 -0.290286
vn -0.881921 0.000000 -0.471398
vn -0.773009 0.000000 -0.634395
vn -0.634392 0.000000 -0.773011
vn -0.471395 0.000000 -0.881922
vn 0.000000 1.000000 0.000000
vn -0.098017 0.000000 -0.995185
vn -0.290283 0.000000 -0.956941
vn 0.000000 -1.000000 0.000000
vn 0.471397 0.000000 -0.881921
vn 0.881921 0.000000 -0.471396
vn 0.634394 0.000000 0.773010
vn 0.290284 0.000000 0.956941
vn -0.098017 0.000000 0.995185
vn -0.773010 0.000000 -0.634394
vn 0.000000 1.000000 0.000002
vn 0.000000 1.000000 -0.000001
vn 0.000000 1.000000 0.000001
vn 0.000000 1.000000 -0.000003
vn 0.000000 1.000000 0.000003
vn 0.000000 1.000000 -0.000002
vn -0.098016 0.000000 -0.995185
vn 0.000000 -1.000000 -0.000002
vn 0.000000 -1.000000 0.000001
vn 0.000000 -1.000000 -0.000001
vn 0.000000 -1.000000 0.000004
vn 0.000000 -1.000000 -0.000003
usemtl None
s off
f 1/1/1 2/2/1 3/3/1
f 3/3/2 4/4/2 5/5/2
f 5/5/3 6/6/3 7/7/3
f 7/7/4 8/8/4 9/9/4
f 9/9/5 10/10/5 11/11/5
f 11/11/6 12/12/6 13/13/6
f 13/13/7 14/14/7 15/15/7
f 15/15/8 16/16/8 17/17/8
f 17/17/9 18/18/9 19/19/9
f 19/19/10 20/20/10 21/21/10
f 21/21/11 22/22/11 23/23/11
f 23/23/12 24/24/12 25/25/12
f 25/25/13 26/26/13 27/27/13
f 27/27/14 28/28/14 29/29/14
f 29/29/15 30/30/15 31/31/15
f 31/32/16 32/33/16 33/32/16
f 33/32/17 34/33/17 35/34/17
f 35/34/18 36/35/18 37/36/18
f 37/36/19 38/37/19 39/38/19
f 39/38/20 40/39/20 41/40/20
f 41/40/21 42/41/21 43/42/21
f 43/42/22 44/43/22 45/44/22
f 45/44/23 46/45/23 47/46/23
f 47/46/24 48/47/24 49/48/24
f 49/48/25 50/49/25 51/50/25
f 51/50/26 52/51/26 53/52/26
f 53/52/27 54/53/27 55/54/27
f 55/54/28 56/55/28 57/56/28
f 57/56/29 58/57/29 59/58/29
f 59/58/30 60/59/30 61/60/30
f 4/33/31 2/2/31 6/33/31
f 63/61/32 64/62/32 1/1/32
f 61/60/33 62/63/33 63/61/33
f 1/1/34 3/32/34 63/61/34
f 2/2/1 4/4/1 3/3/1
f 4/4/2 6/6/2 5/5/2
f 6/6/35 8/8/35 7/7/35
f 8/8/4 10/10/4 9/9/4
f 10/10/5 12/12/5 11/11/5
f 12/12/36 14/14/36 13/13/36
f 14/14/7 16/16/7 15/15/7
f 16/16/8 18/18/8 17/17/8
f 18/18/9 20/20/9 19/19/9
f 20/20/10 22/22/10 21/21/10
f 22/22/11 24/24/11 23/23/11
f 24/24/12 26/26/12 25/25/12
f 26/26/37 28/28/37 27/27/37
f 28/28/14 30/30/14 29/29/14
f 30/30/38 32/64/38 31/31/38
f 32/33/16 34/33/16 33/32/16
f 34/33/39 36/35/39 35/34/39
f 36/35/18 38/37/18 37/36/18
f 38/37/19 40/39/19 39/38/19
f 40/39/20 42/41/20 41/40/20
f 42/41/21 44/43/21 43/42/21
f 44/43/22 46/45/22 45/44/22
f 46/45/23 48/47/23 47/46/23
f 48/47/24 50/49/24 49/48/24
f 50/49/25 52/51/25 51/50/25
f 52/51/26 54/53/26 53/52/26
f 54/53/27 56/55/27 55/54/27
f 56/55/40 58/57/40 57/56/40
f 58/57/29 60/59/29 59/58/29
f 60/59/30 62/63/30 61/60/30
f 2/2/31 64/62/31 6/33/31
f 64/62/31 62/63/31 6/33/31
f 62/63/31 60/59/31 6/33/31
f 60/59/31 58/57/31 6/33/31
f 58/57/41 56/55/41 6/33/41
f 56/55/42 54/53/42 6/33/42
f 54/53/31 52/51/31 6/33/31
f 52/51/31 50/49/31 6/33/31
f 50/49/31 48/47/31 6/33/31
f 48/47/31 46/45/31 6/33/31
f 46/45/31 44/43/31 6/33/31
f 44/43/43 42/41/43 6/33/43
f 42/41/31 40/39/31 6/33/31
f 38/37/31 36/35/31 34/33/31
f 38/37/44 34/33/44 32/33/44
f 40/39/31 38/37/31 32/33/31
f 6/33/31 40/39/31 32/33/31
f 28/33/31 32/33/31 30/33/31
f 26/33/44 32/33/44 28/33/44
f 24/33/45 32/33/45 26/33/45
f 22/33/46 32/33/46 24/33/46
f 20/33/31 32/33/31 22/33/31
f 10/33/31 14/33/31 12/33/31
f 10/33/31 16/33/31 14/33/31
f 18/33/43 32/33/43 20/33/43
f 16/33/31 32/33/31 18/33/31
f 10/33/31 32/33/31 16/33/31
f 8/33/31 6/33/31 32/33/31
f 10/33/31 8/33/31 32/33/31
f 64/62/47 2/2/47 1/1/47
f 62/63/33 64/62/33 63/61/33
f 3/32/34 5/32/34 63/61/34
f 5/32/34 7/32/34 63/61/34
f 7/32/34 9/32/34 63/61/34
f 9/32/48 11/32/48 63/61/48
f 11/32/34 13/32/34 63/61/34
f 13/32/34 15/32/34 63/61/34
f 15/32/34 17/32/34 63/61/34
f 17/32/49 19/32/49 63/61/49
f 19/32/34 21/32/34 63/61/34
f 21/32/50 23/32/50 63/61/50
f 23/32/34 25/32/34 63/61/34
f 53/52/34 49/48/34 51/50/34
f 25/32/34 27/32/34 29/32/34
f 63/61/34 25/32/34 29/32/34
f 35/34/51 31/32/51 33/32/51
f 35/34/52 29/32/52 31/32/52
f 63/61/34 29/32/34 35/34/34
f 41/40/34 37/36/34 39/38/34
f 41/40/49 35/34/49 37/36/49
f 63/61/34 35/34/34 41/40/34
f 47/46/34 43/42/34 45/44/34
f 61/60/34 63/61/34 41/40/34
f 53/52/34 47/46/34 49/48/34
f 53/52/34 43/42/34 47/46/34
f 59/58/34 61/60/34 41/40/34
f 57/56/34 59/58/34 41/40/34
f 55/54/34 57/56/34 41/40/34
f 53/52/34 55/54/34 43/42/34
f 55/54/34 41/40/34 43/42/34
